<svg xmlns="http://www.w3.org/2000/svg" width="485" height="549" viewBox="0 0 485 549"><defs><clipPath id="izt1a"><path fill="#fff" d="M482.18-.008l2.828 2.83L177.08 311.008l-2.828-2.83z"/></clipPath><clipPath id="izt1b"><path fill="#fff" d="M-.015 453.407l2.84-2.814 93.922 95-2.841 2.814z"/></clipPath></defs><g><g><path fill="none" stroke="#ce1717" stroke-miterlimit="20" stroke-width="8" d="M482.18-.008v0l2.828 2.83v0L177.08 311.008v0l-2.828-2.83v0z" clip-path="url(&quot;#izt1a&quot;)"/></g><g><path fill="none" stroke="#ce1717" stroke-miterlimit="20" stroke-width="8" d="M-.015 453.407v0l2.84-2.814v0l93.922 95v0l-2.841 2.814v0z" clip-path="url(&quot;#izt1b&quot;)"/></g><g><path fill="#ce1717" d="M109.116 287.99l9.871 9.903-9.788 9.986-9.871-9.903z"/></g><g><path fill="#ce1717" d="M109.39 308.022l9.917 9.96-9.834 10.045-9.917-9.96z"/></g><g><path fill="#ce1717" d="M109.39 328.008l9.917 9.96-9.834 10.045-9.917-9.961z"/></g><g><path fill="#ce1717" d="M109.39 345.773l9.917 9.96-9.834 10.045-9.917-9.96z"/></g><g><path fill="#ce1717" d="M109.39 365.758l9.917 9.961-9.834 10.045-9.917-9.961z"/></g><g><path fill="#ce1717" d="M109.39 385.004l9.917 9.96-9.834 10.045-9.917-9.96z"/></g></g></svg>